<svg width="490" height="90" viewBox="0 0 490 90" fill="none" xmlns="http://www.w3.org/2000/svg">
<g clip-path="url(#clip0_104_1503)">
<path d="M5.685 26.57C6.815 24.91 10.055 21.87 16.085 21.87C24.495 21.87 30.395 27.96 30.395 37.17C30.395 46.38 24.495 52.67 15.555 52.67C7.675 52.67 1.905 47.57 0.654999 39.69L4.095 38.76C5.025 45.12 9.465 49.23 15.485 49.23C22.305 49.23 26.675 44.13 26.675 36.98C26.675 29.83 22.365 24.99 15.215 24.99C9.455 24.99 6.275 28.24 5.015 31.28L1.765 30.42L5.625 5.51001H28.605V9.02001H8.405L7.015 18.43C6.285 23.2 5.555 26.31 5.555 26.51L5.685 26.58V26.57Z" fill="#7F3F98"/>
<path d="M47.355 38.96V51.88H36.755V5.51001H47.355V17.9L47.285 25.39H47.555C47.625 25.26 50.135 21.81 52.055 19.23L62.125 5.52001H74.645L60.005 24.33L75.105 51.88H62.855L52.325 32.67L47.355 38.96Z" fill="#7F3F98"/>
<path d="M79.415 5.51001H90.015V51.88H79.415V5.51001Z" fill="#7F3F98"/>
<path d="M114.455 5.51001C127.505 5.51001 136.245 14.65 136.245 28.89C136.245 43.13 127.635 51.87 114.585 51.87H96.635V5.51001H114.455ZM113.665 41.94C120.095 41.94 125.525 38.43 125.525 29.02C125.525 19.15 120.025 15.44 113.735 15.44H107.245V41.94H113.665Z" fill="#7F3F98"/>
<path d="M149.635 37.5C150.365 41.08 152.945 43.26 157.385 43.26C161.025 43.26 163.285 41.87 163.285 38.95C163.285 34.78 158.645 34.51 153.485 32.79C147.725 30.87 140.565 27.89 140.565 18.15C140.565 9.41001 146.595 4.57001 156.725 4.57001C165.335 4.57001 171.895 8.08001 173.945 16.69L163.815 19.47C162.885 15.76 160.635 14.1 156.665 14.1C153.025 14.1 151.435 15.49 151.435 18.01C151.435 21.72 155.145 22.51 161.105 24.3C167.335 26.15 174.085 29.07 174.085 38.81C174.085 48.55 167.995 52.79 157.525 52.79C149.575 52.79 141.565 49.94 139.505 40.2L149.635 37.49V37.5Z" fill="#7F3F98"/>
<path d="M204.885 4.5H197.375V51.34H204.885V4.5Z" fill="#EC008C"/>
<path d="M177.715 24.16V31.67L224.555 31.67V24.16L177.715 24.16Z" fill="#EC008C"/>
<path d="M233.575 33.72C232.645 35.18 231.585 36.44 230.665 37.83C230.405 38.16 230.005 38.49 229.735 38.82C229.535 39.08 228.605 39.68 228.475 40.08C228.345 40.35 228.405 41.54 227.485 41.34C227.155 43.33 225.235 43.79 224.965 45.78C224.765 46.24 224.305 46.38 223.705 46.44C223.635 46.97 223.835 47.63 223.375 47.7C223.445 48.83 222.245 48.69 221.785 49.29C221.915 51.61 220.125 51.87 219.865 53.73C219.335 54.26 218.935 54.92 218.605 55.65C217.815 55.39 216.885 56.64 216.355 55.65C215.695 55.78 215.755 55.19 215.755 54.72C215.225 52.14 217.075 49.29 218.275 47.37C218.345 46.38 219.205 46.18 219.535 45.51C219.735 44.65 219.995 43.99 220.525 43.59C220.985 41.93 222.185 40.61 223.045 39.15C223.835 37.76 224.505 36.3 225.295 34.65C225.755 33.72 226.025 32.6 226.885 31.8C228.075 29.02 229.795 26.7 231.325 24.18C231.855 23.65 231.925 22.66 232.585 22.26C233.185 20.8 234.375 20.01 234.835 18.48C235.365 18.02 236.095 17.82 236.095 16.89C237.355 16.1 238.015 14.7 238.945 13.71C239.875 13.51 239.735 12.32 240.535 12.12C240.995 11.46 241.595 11.06 242.125 10.53C242.585 10 242.985 9.47 243.385 8.94C244.445 9.01 244.115 7.68 244.975 7.62C248.085 4.77 251.535 2.32 255.835 0.66C256.235 0.53 256.295 0.06 256.765 0H261.865C262.725 0.53 263.585 0.99 264.715 1.26C265.705 2.32 266.375 3.64 267.565 4.44C267.695 5.7 268.025 6.76 268.555 7.62C268.955 11.46 267.625 13.58 267.565 16.89C266.635 18.15 265.905 19.67 265.645 21.66C264.585 22.59 264.055 24.04 263.455 25.44C261.665 27.43 259.545 28.95 258.025 31.2C256.565 31.47 255.575 32.33 254.515 33.06C253.855 33.26 253.655 33.85 252.665 33.72C252.135 34.05 252.005 34.78 251.075 34.65C247.695 36.11 243.985 37.17 238.955 36.9C239.025 36.24 237.825 36.77 237.365 36.57C237.365 35.91 236.575 35.91 235.775 35.97C235.045 35.18 234.315 34.45 233.585 33.72H233.575ZM243.705 33.72C246.555 32.93 249.205 32.33 251.655 31.2C254.035 30.07 255.965 28.42 258.015 27.03C260.395 23.92 263.185 21.2 264.045 16.56C265.105 15.63 265.175 13.78 265.635 12.39C265.905 11.33 265.305 11.07 265.035 10.54C266.165 10.47 265.695 9.02 265.635 8.62C265.565 6.9 263.715 4.91 263.115 3.85C262.125 3.45 260.925 3.25 260.265 2.59C258.745 2.72 258.145 2.99 256.755 2.59C256.295 2.72 255.965 3.05 255.825 3.52C254.565 3.79 253.905 4.58 252.905 5.11C251.715 5.44 251.115 6.5 249.725 6.7C246.545 10.81 241.645 13.26 238.925 17.83C237.535 19.49 236.075 21.08 235.415 23.53C234.155 24.59 233.165 25.98 232.235 27.37C231.305 28.89 230.715 30.62 229.385 31.81C229.515 33.53 228.525 34.13 228.125 35.32C229.185 35.32 228.985 34.06 229.715 33.73C230.115 33.07 230.645 32.54 231.305 32.14C231.965 30.68 233.025 29.62 233.555 28.03C234.155 27.76 234.685 27.17 235.145 26.7C235.675 26.24 236.405 25.84 236.735 25.11C237.525 23.85 238.985 23.19 239.585 21.67C240.915 20.94 241.105 19.15 242.765 18.76C243.755 17.7 244.485 16.31 246.275 15.91C246.535 16.51 247.405 16.44 247.535 17.17C247.405 19.42 245.875 20.15 244.685 21.01C244.085 22.6 242.495 23.39 241.505 24.52C240.375 25.65 239.715 27.17 238.325 28.03C238.195 29.02 237.335 29.35 236.735 29.88C236.735 31.07 235.075 30.61 235.415 32.13C237.075 33.79 240.445 33.65 243.695 33.72H243.705Z" fill="#EC008C"/>
<path d="M286.635 41.6C286.635 41.47 283.655 45.04 282.665 45.51C281.805 45.91 281.145 47.23 280.285 47.23C279.495 47.76 277.235 49.75 276.975 49.75C276.575 49.75 275.385 51.01 274.595 51.01C274.465 51.01 274.265 50.94 274.195 50.94C273.595 50.94 271.145 52.07 270.225 52.27C268.435 52.27 268.175 52.6 267.375 52.6C265.525 52.53 263.735 51.87 262.275 51.01C261.815 49.82 261.285 48.76 261.285 47.17C261.285 43.99 263.135 40.28 265.125 37.04C265.525 36.38 265.855 35.32 266.385 34.46C268.965 30.22 271.815 25.85 274.665 21.74C274.995 21.14 275.455 20.61 275.655 19.82C276.445 19.42 278.375 17.24 278.835 15.38C282.475 12.4 282.875 9.94999 288.635 4.57999C290.425 2.91999 294.065 1.72999 294.065 0.73999C294.855 0.73999 295.125 1.13999 295.855 1.13999C295.985 1.13999 296.115 1.13999 296.315 1.06999C296.575 1.99999 296.975 2.78999 296.975 3.97999C296.975 5.69999 295.985 9.60999 294.985 11.6C294.655 12.2 294.055 12.39 294.055 13.19C291.805 19.28 288.625 23.52 284.185 28.09C282.865 29.48 281.135 30.67 280.405 32.53C278.685 33.32 276.035 34.98 275.635 36.04C275.035 36.04 275.035 36.24 274.975 36.7C273.515 37.1 272.325 37.89 271.135 38.62C270.345 39.68 268.615 39.88 268.285 41.47C266.895 41.67 266.565 42.93 265.105 43.06C264.835 44.12 264.445 45.44 264.445 46.77C264.445 48.89 265.905 49.09 267.225 49.09C272.455 49.09 277.225 45.58 279.945 43.72C282.925 41.67 285.375 39.88 287.095 38.02C287.295 38.09 286.635 41.86 286.635 41.6ZM290.875 6.48999C289.415 8.27999 287.365 9.99999 286.105 11.59C285.375 12.52 282.925 14.7 282.925 15.03C282.925 16.09 281.995 16.09 281.995 17.28C279.675 18.34 279.085 20.59 279.085 21.12C276.895 22.31 276.105 25.09 275.635 25.56C275.375 25.76 274.775 25.49 274.645 25.89C274.245 28.67 273.055 28.61 273.055 29.27C273.055 29.6 272.395 29.47 272.395 29.8C272.395 30.06 271.405 31.92 270.935 31.92C270.935 31.92 270.145 33.91 270.145 33.64C270.145 34.3 268.295 37.02 267.765 37.48C270.145 37.48 275.385 31.65 277.365 30.59C277.495 30.59 277.695 30.66 277.765 30.66C278.495 30.66 280.875 27.61 281.675 26.82C284.255 24.24 286.445 21.26 288.965 18.54C289.425 16.75 290.425 15.16 291.215 13.44C291.615 13.64 291.545 13.24 291.545 12.98C291.545 12.12 292.875 9.53999 293.735 8.40999C293.665 8.20999 293.665 8.00999 293.665 7.80999C293.665 6.81999 294.265 6.14999 294.265 5.48999C294.265 4.88999 293.735 4.69999 293.275 4.69999C292.285 4.69999 291.555 5.82999 290.895 6.48999H290.875Z" fill="#EC008C"/>
<path d="M325.585 40.14C324.455 40.74 323.205 42.39 322.145 42.92C321.015 43.45 321.285 43.91 320.155 44.51C319.025 45.11 318.165 45.97 317.045 46.56C316.445 46.82 315.725 46.82 315.125 47.16C314.465 47.56 314.335 47.89 313.535 47.82C312.405 48.95 310.355 48.61 309.425 49.94C307.105 50.2 305.515 50.07 303.335 50.47C303.335 49.81 302.005 50.34 301.485 50.14C301.415 49.35 300.225 49.68 300.155 48.88C299.555 48.81 300.085 47.49 299.225 47.62C298.295 47.49 298.035 48.41 297.305 48.55C296.445 48.82 295.185 49.48 294.125 50.14C293.665 50.47 291.935 50.8 290.945 51.47C290.485 51.73 287.895 52.46 286.835 52.4C286.965 52.4 285.905 51.74 285.245 52.07C283.725 50.68 282.925 48.56 283.655 45.71C284.445 44.85 284.915 43.59 285.245 42.2C286.235 41.34 286.835 40.01 287.765 39.02C289.355 37.03 291.475 35.51 293.195 33.65C294.325 32.92 295.385 32.19 296.045 31.07C297.705 31 298.165 29.81 299.225 29.22C300.485 28.62 302.075 28.43 302.735 27.3C305.655 26.9 307.505 25.44 310.355 25.05C312.675 25.51 313.665 27.83 312.875 30.48C312.345 31.08 311.945 31.81 311.025 32.07C311.155 32.73 310.365 32.53 310.365 33C310.295 33.46 309.575 33.26 309.105 33.33C307.915 31.67 309.965 30.95 310.035 29.49C308.445 28.7 307.315 30.15 305.265 29.82C304.335 30.48 303.075 30.61 302.085 31.08C301.155 31.61 300.625 32.47 299.565 32.67C297.775 33.73 296.585 35.45 294.465 36.18C293.605 37.44 292.615 38.56 291.615 39.69C290.825 39.96 290.625 40.82 290.025 41.28C289.425 41.74 289.365 42.74 288.435 42.87C287.905 44.92 286.715 46.18 286.515 48.57C288.435 49.7 290.155 48.04 291.945 47.97C291.945 47.37 292.475 47.57 292.875 47.31C293.275 47.11 293.475 46.91 293.805 46.71C294.405 46.38 295.795 46.38 295.725 45.39C296.515 45.46 297.245 45.46 297.645 45.06C298.375 44.99 298.245 44 299.235 44.13C299.505 42.8 300.365 42.08 300.495 40.62C301.155 39.89 302.085 39.43 302.085 38.1C304.665 37.24 304.735 33.93 308.445 34.26C309.235 34.59 309.235 35.65 309.705 36.18C309.905 38.17 308.185 38.23 308.115 40.02C307.125 40.55 306.525 41.61 305.925 42.54C305.065 42.87 304.595 43.53 304.005 44.13C303.545 44.59 302.285 44.79 302.745 46.05C302.415 47.18 304.135 46.38 304.335 46.98C304.865 46.71 305.665 46.85 306.255 46.71C307.315 46.38 308.105 46.64 309.105 46.11C310.095 45.65 311.295 45.32 312.285 44.85C314.205 43.99 316.065 43.19 317.985 42.33C318.775 41.4 319.705 40.94 320.635 40.41C321.955 39.68 323.085 38.75 324.605 37.89C324.605 37.89 325.395 40.21 325.595 40.14H325.585Z" fill="#EC008C"/>
<path d="M352.675 44.12C351.545 44.52 351.285 45.05 349.495 45.84C348.365 46.83 347.775 46.57 346.575 47.5C344.125 49.22 341.075 49.42 338.495 51.01C336.645 51.08 334.185 51.87 332.735 50.35C332.665 48.76 333.195 47.5 333.725 46.57C333.795 46.44 333.595 45.97 333.725 45.91C334.055 45.65 333.795 45.38 334.055 44.98C334.125 44.78 334.515 44.91 334.655 44.65C334.985 44.12 334.985 43.79 335.315 43.39C335.515 43.06 335.975 42.79 336.245 42.4C336.315 42.33 336.175 41.87 336.245 41.8C336.575 41.54 336.645 41.47 336.905 41.14C337.565 40.21 339.625 36.3 340.415 34.85C337.765 35.78 332.005 40.08 330.015 41.87C329.415 42.47 328.425 43.13 328.025 43.86C326.565 44.79 326.105 46.51 324.715 47.5C323.655 47.57 323.785 48.89 322.795 49.09C322.135 49.55 321.605 50.22 320.875 50.68C319.215 50.48 318.825 51.54 317.955 50.35C317.825 48.76 318.685 48.16 319.215 47.17C320.075 46.57 320.545 45.51 321.135 44.65C322.125 42.73 324.845 39.02 325.635 36.77C325.895 35.64 327.095 30.08 327.425 29.28C327.885 28.15 328.615 28.29 330.205 28.55C331.335 29.61 330.205 35.44 329.415 36.76C329.875 36.96 329.415 37.09 329.415 37.42H329.085C329.285 38.35 329.615 36.96 330.075 37.09C330.675 37.09 330.275 36.23 331.135 36.49C331.465 35.63 332.395 35.36 332.725 34.57C333.455 34.77 333.715 34.24 334.315 33.91C335.175 33.45 335.905 33.05 336.835 32.32C337.165 32.12 337.495 31.59 337.825 31.39C339.345 30.33 341.795 29.54 343.255 28.21C344.385 27.68 347.095 26.36 348.685 27.22C349.615 29.27 348.415 31.26 347.095 31.99C347.225 33.25 345.765 32.98 345.835 34.24C344.905 34.37 345.105 35.63 344.245 35.83C343.785 37.62 341.465 40.93 340.405 42.06C340.005 42.92 339.615 43.65 339.085 44.31C338.155 44.44 338.485 45.83 337.825 46.23C338.355 47.09 339.015 45.5 339.745 45.57C340.405 45.31 341.465 45.77 341.995 45.31C342.855 45.24 342.855 44.91 343.585 44.71C347.025 43.25 348.085 43.52 350.935 41.46C352.325 40.93 352.195 41.06 353.315 40.27C354.105 39.74 354.505 39.28 354.975 38.81C355.505 38.61 356.435 37.82 356.895 37.62C358.155 36.96 359.145 35.9 361.065 35.83C361.395 38.94 360.665 40.2 359.675 40.27C359.075 40.27 358.015 40.67 357.955 40.93C356.625 42.06 354.115 43.45 352.655 44.11L352.675 44.12Z" fill="#EC008C"/>
<path d="M387.925 44.12C386.795 44.52 386.535 45.05 384.745 45.84C383.615 46.83 383.025 46.57 381.825 47.5C379.375 49.22 376.325 49.42 373.745 51.01C371.895 51.08 369.435 51.87 367.985 50.35C367.915 48.76 368.445 47.5 368.975 46.57C369.045 46.44 368.845 45.97 368.975 45.91C369.305 45.65 369.045 45.38 369.305 44.98C369.375 44.78 369.765 44.91 369.905 44.65C370.235 44.12 370.235 43.79 370.565 43.39C370.765 43.06 371.225 42.79 371.495 42.4C371.565 42.33 371.425 41.87 371.495 41.8C371.825 41.54 371.895 41.47 372.155 41.14C372.815 40.21 374.875 36.3 375.665 34.85C373.015 35.78 367.255 40.08 365.265 41.87C364.665 42.47 363.675 43.13 363.275 43.86C361.815 44.79 361.355 46.51 359.965 47.5C358.905 47.57 359.035 48.89 358.045 49.09C357.385 49.55 356.855 50.22 356.125 50.68C354.465 50.48 354.075 51.54 353.205 50.35C353.075 48.76 353.935 48.16 354.465 47.17C355.325 46.57 355.795 45.51 356.385 44.65C357.375 42.73 360.095 39.02 360.885 36.77C361.145 35.64 362.345 30.08 362.675 29.28C363.135 28.15 363.865 28.29 365.455 28.55C366.585 29.61 365.455 35.44 364.665 36.76C365.125 36.96 364.665 37.09 364.665 37.42H364.335C364.535 38.35 364.865 36.96 365.325 37.09C365.925 37.09 365.525 36.23 366.385 36.49C366.715 35.63 367.645 35.36 367.975 34.57C368.705 34.77 368.965 34.24 369.565 33.91C370.425 33.45 371.155 33.05 372.085 32.32C372.415 32.12 372.745 31.59 373.075 31.39C374.595 30.33 377.045 29.54 378.505 28.21C379.635 27.68 382.345 26.36 383.935 27.22C384.865 29.27 383.665 31.26 382.345 31.99C382.475 33.25 381.015 32.98 381.085 34.24C380.155 34.37 380.355 35.63 379.495 35.83C379.035 37.62 376.715 40.93 375.655 42.06C375.255 42.92 374.865 43.65 374.335 44.31C373.405 44.44 373.735 45.83 373.075 46.23C373.605 47.09 374.265 45.5 374.995 45.57C375.655 45.31 376.715 45.77 377.245 45.31C378.105 45.24 378.105 44.91 378.835 44.71C382.275 43.25 383.335 43.52 386.185 41.46C387.575 40.93 387.445 41.06 388.565 40.27C389.355 39.74 389.755 39.28 390.225 38.81C390.755 38.61 391.685 37.82 392.145 37.62C393.405 36.96 394.395 35.9 396.315 35.83C396.645 38.94 395.915 40.2 394.925 40.27C394.325 40.27 393.265 40.67 393.205 40.93C391.875 42.06 389.365 43.45 387.905 44.11L387.925 44.12Z" fill="#EC008C"/>
<path d="M405.145 46.63C405.015 46.17 402.955 47.16 402.895 47.56C401.305 48.42 399.185 48.75 397.465 49.48C397.135 50.21 396.535 49.61 395.875 49.81C395.745 49.88 395.085 50.41 394.945 50.47C393.285 50.74 391.565 50.4 390.175 50.74C389.975 49.88 388.845 49.95 388.915 48.89C388.655 47.7 388.845 46.57 389.115 45.97C389.715 44.71 391.365 42 392.425 41.2C394.475 39.48 396.795 35.44 398.985 33.85C399.185 33.12 399.915 32.86 400.575 32.59C400.645 31.66 401.565 31.66 401.835 31C402.435 30.6 402.895 30.14 403.425 29.67C404.025 29.41 403.825 28.41 405.015 28.74C406.335 28.61 405.875 30.2 406.605 30.66C406.275 32.65 404.285 32.98 403.755 34.77C402.095 35.37 401.765 37.35 400.505 38.28C398.845 38.94 397.325 42.19 395.865 43.12C395.075 44.51 393.285 44.97 393.015 46.96C394.335 47.82 396.325 46.69 397.185 45.97C399.565 45.77 401.425 44.71 403.215 43.78C404.935 42.85 406.525 42.12 408.245 41.13C409.575 40.6 409.575 39.67 410.695 39.01C412.085 38.61 413.415 37.42 415.065 37.29C415.795 39.34 414.605 41.33 411.625 42.85C411.165 43.51 410.105 43.84 409.575 44.44C408.715 45.43 405.865 45.23 405.135 46.63H405.145ZM418.455 9.4C419.115 10.66 419.315 12.38 419.445 14.17C418.585 15.3 416.335 14.7 415.275 14.17C415.205 11.45 415.205 8.8 418.455 9.4Z" fill="#EC008C"/>
<path d="M442.435 44.12C441.305 44.52 441.045 45.05 439.255 45.84C438.125 46.83 437.535 46.57 436.335 47.5C433.885 49.22 430.835 49.42 428.255 51.01C426.405 51.08 423.945 51.87 422.495 50.35C422.425 48.76 422.955 47.5 423.485 46.57C423.555 46.44 423.355 45.97 423.485 45.91C423.815 45.65 423.555 45.38 423.815 44.98C423.885 44.78 424.275 44.91 424.415 44.65C424.745 44.12 424.745 43.79 425.075 43.39C425.275 43.06 425.735 42.79 426.005 42.4C426.075 42.33 425.935 41.87 426.005 41.8C426.335 41.54 426.405 41.47 426.665 41.14C427.325 40.21 429.385 36.3 430.175 34.85C427.525 35.78 421.765 40.08 419.775 41.87C419.175 42.47 418.185 43.13 417.785 43.86C416.325 44.79 415.865 46.51 414.475 47.5C413.415 47.57 413.545 48.89 412.555 49.09C411.895 49.55 411.365 50.22 410.635 50.68C408.975 50.48 408.585 51.54 407.715 50.35C407.585 48.76 408.445 48.16 408.975 47.17C409.835 46.57 410.305 45.51 410.895 44.65C411.885 42.73 414.605 39.02 415.395 36.77C415.655 35.64 416.855 30.08 417.185 29.28C417.645 28.15 418.375 28.29 419.965 28.55C421.095 29.61 419.965 35.44 419.175 36.76C419.635 36.96 419.175 37.09 419.175 37.42H418.845C419.045 38.35 419.375 36.96 419.835 37.09C420.435 37.09 420.035 36.23 420.895 36.49C421.225 35.63 422.155 35.36 422.485 34.57C423.215 34.77 423.475 34.24 424.075 33.91C424.935 33.45 425.665 33.05 426.595 32.32C426.925 32.12 427.255 31.59 427.585 31.39C429.105 30.33 431.555 29.54 433.015 28.21C434.145 27.68 436.855 26.36 438.445 27.22C439.375 29.27 438.175 31.26 436.855 31.99C436.985 33.25 435.525 32.98 435.595 34.24C434.665 34.37 434.865 35.63 434.005 35.83C433.545 37.62 431.225 40.93 430.165 42.06C429.765 42.92 429.375 43.65 428.845 44.31C427.915 44.44 428.245 45.83 427.585 46.23C428.115 47.09 428.775 45.5 429.505 45.57C430.165 45.31 431.225 45.77 431.755 45.31C432.615 45.24 432.615 44.91 433.345 44.71C436.785 43.25 437.845 43.52 440.695 41.46C442.085 40.93 441.955 41.06 443.075 40.27C443.865 39.74 444.265 39.28 444.735 38.81C445.265 38.61 446.195 37.82 446.655 37.62C447.915 36.96 448.905 35.9 450.825 35.83C451.155 38.94 450.425 40.2 449.435 40.27C448.835 40.27 447.775 40.67 447.715 40.93C446.385 42.06 443.875 43.45 442.415 44.11L442.435 44.12Z" fill="#EC008C"/>
<path d="M488.805 36.17C486.755 36.83 485.295 37.89 483.305 38.69H483.045C482.385 38.69 482.115 39.22 481.385 39.02C481.255 39.62 480.785 39.48 480.395 39.88C479.335 40.21 478.475 40.01 477.875 40.94C476.485 41.73 471.585 43.92 470.385 44.72C468.535 45.51 467.405 45.45 465.685 46.51C465.285 47.37 465.025 48.03 464.095 48.7C464.295 48.9 464.425 49.1 464.425 49.36C464.425 50.02 463.965 50.49 464.095 51.28C463.435 51.28 462.235 54.26 461.575 55.06C461.575 55.99 460.715 57.71 460.315 58.57C459.915 58.7 459.585 59.1 459.655 59.56C459.055 61.88 457.605 63.87 456.805 66.18V66.45C456.805 67.24 455.675 67.11 455.875 68.11C455.085 69.5 454.685 71.09 453.625 72.28C453.695 72.88 449.385 78.9 448.855 80.23C447.865 81.22 447.005 82.42 446.335 83.67C444.875 84.86 442.955 87.31 441.235 87.84C440.835 89.03 436.205 89.83 435.075 89.83L434.215 89.76C434.085 89.36 433.755 89.1 433.285 89.1C432.155 87.64 432.095 85.66 431.365 84V83.74C431.365 82.61 431.825 81.69 431.695 80.49C432.355 79.3 432.755 78.04 432.955 76.71C435.205 73.13 436.735 69.03 439.975 66.18C440.045 65.19 440.905 64.86 441.565 64.33C442.495 62.48 444.215 61.28 445.675 59.83C445.675 59.37 447.665 57.38 448.195 57.31C449.785 54.86 452.965 52.67 455.215 50.82L456.145 50.55C457.135 49.82 458.135 49.16 459.065 48.3L459.595 47.64L460.325 46.51C459.065 46.58 457.475 46.97 456.485 47.77C454.695 47.77 452.905 48.43 451.115 48.43C450.325 48.43 449.925 47.9 448.865 48.1C447.935 47.44 447.275 46.44 446.345 45.85V45.58C446.345 44.79 445.945 44.06 445.945 43.26C445.945 41.07 447.205 39.29 447.935 37.3C449.325 35.97 450.655 34.45 451.715 32.8L459.995 27.77H460.925C463.835 26.45 464.505 25.85 467.945 25.85C469.605 25.85 471.525 25.98 473.045 26.78C473.575 27.91 474.765 28.5 475.235 29.63V31.55C475.235 33.07 473.185 34.13 472.055 34.73C471.655 35.46 471.455 36.25 471.125 36.98C470.465 37.24 470.195 38.57 470.195 39.3V39.56L470.985 39.96C471.445 39.96 471.845 40.42 471.975 39.96C474.095 39.1 475.945 38.11 478.205 37.51C478.605 37.18 478.805 37.18 479.135 36.78C480.125 36.58 480.855 36.32 481.715 35.92C482.175 35.13 488.005 33.34 489.205 33.34C489.275 33.34 489.335 33.41 489.335 33.54C489.465 34.47 488.405 35.2 488.805 36.19V36.17ZM446.615 62.07C445.355 63.53 444.095 65.05 442.505 66.18C441.315 68.7 437.935 72.87 436.145 76.05C435.415 77.31 435.615 79.23 434.555 80.22C434.685 80.48 434.825 80.82 434.825 81.08V85.19C434.825 85.85 435.885 85.32 435.485 86.25C435.685 86.38 435.885 86.45 436.145 86.45C437.135 86.45 438.065 85.99 438.995 85.59L439.325 84.99C441.375 83.66 442.835 82.01 444.755 80.49C445.015 79.56 449.325 73.27 449.785 73.2C450.315 72.94 449.715 71.61 450.775 71.94C451.175 70.22 456.145 60.68 457.135 59.22C457.925 57.83 458.395 56.64 458.725 55.58C458.795 53.86 460.315 52.6 460.315 50.81C460.315 50.68 460.385 50.54 460.185 50.54C459.055 50.54 447.005 60.81 446.605 62.07H446.615ZM467.285 29.02C466.555 29.02 462.585 30.08 462.255 30.61C460.335 30.41 456.495 33.66 454.575 34.39C454.115 35.45 453.315 36.31 452.385 36.97C451.855 38.1 451.065 39.02 450.135 39.82C450.005 41.01 449.205 42.07 449.205 43.26C449.205 43.72 449.405 44.19 449.535 44.59C450.265 44.85 450.865 45.25 451.655 45.25C453.775 45.25 455.765 43.73 457.745 43.92C458.475 43.26 459.335 42.93 460.325 42.99C461.515 41.53 463.105 40.61 464.765 39.81C466.155 36.9 467.345 33.65 469.865 31.53C470.655 31.33 470.995 31.33 471.785 31.53V31.26C471.785 29.67 468.475 29.01 467.285 29.01V29.02Z" fill="#EC008C"/>
</g>
<defs>
<clipPath id="clip0_104_1503">
<rect width="488.69" height="89.82" fill="white" transform="translate(0.654999)"/>
</clipPath>
</defs>
</svg>
