<?xml version="1.0" encoding="UTF-8"?><svg id="uuid-d6efa8c5-b307-4a76-8d00-65b4019a0f1d" xmlns="http://www.w3.org/2000/svg" viewBox="0 0 196.23 23.44"><path d="m102.04,18.42c.71-.52,1.05-1.18,1.05-1.99,0-2.4-5.25-5.78-7.61-5.78-1.93,0-4.57,1.23-4.57,3.48,0,1.91,2.14,2.95,3.89,2.95.86,0,2.72-.47,3.32-1.39l2.51,1.46c-1.18,2.01-4.03,2.67-5.8,2.67-3.79,0-7.06-1.59-7.06-5.7,0-3.63,4-5.59,5.65-5.83-.99-.55-1.91-1.54-1.91-3.45,0-3.06,2.17-4.84,4.97-4.84s4.97,1.44,4.97,4.44c0,.92-.44,2.09-1.46,2.67l-2.27-1.25c.42-.44.73-1.05.73-1.83s-.86-1.28-1.96-1.28c-1.23,0-1.86.91-1.86,2.01,0,1.91,1.96,3.06,4.05,3.92,4.81,1.99,7.63,4.18,7.63,7.61,0,1.59-.55,2.95-1.44,3.71l-2.82-1.59h-.01Z" fill="#db2677" stroke-width="0"/><path d="m111.25,12.42v4.88h-2.57V3.22h5.4c3.76,0,6.56.98,6.56,4.59,0,3.38-2.8,4.61-5.89,4.61h-3.51.01Zm0-6.97v4.77h3.38c1.74,0,3.51-.48,3.51-2.43,0-1.51-1.14-2.34-3.26-2.34,0,0-3.63,0-3.63,0Z" fill="#49154e" stroke-width="0"/><path d="m123.64,17.31V2.83h2.32v14.48s-2.32,0-2.32,0Z" fill="#49154e" stroke-width="0"/><path d="m135.58,10.82c0-1.25-.93-1.68-2.1-1.68-1.27,0-1.93.58-2.32,1.16l-1.37-1.45c.37-.75,1.7-1.76,3.57-1.76,3.11,0,4.38,1.24,4.38,4.5v3.44c0,.58.46,1,1.16,1l-.33,1.41c-1.18,0-1.91-.46-2.26-1.08-.58.66-1.41,1.16-3.2,1.16-2.84,0-3.98-1.27-3.98-3.11,0-3.78,5.21-2.8,6.45-3.59h0Zm0,3.49v-1.83c-1.35.52-4.17-.02-4.17,1.93,0,.58.35,1.18,1.91,1.18.98,0,1.89-.29,2.26-1.27h0Z" fill="#49154e" stroke-width="0"/><path d="m141.45,17.31V7.46l.95-.21c.41.31.77.85,1,1.35.68-.85,1.91-1.49,3.46-1.49,2.35,0,4.48,1.52,4.48,4.15v6.04h-2.2v-5.67c0-1.43-1.24-2.45-2.57-2.45-1.12,0-2.86.85-2.86,1.74v6.39s-2.26,0-2.26,0Z" fill="#49154e" stroke-width="0"/><path d="m154.92,17.31V7.46l.95-.21c.41.31.77.85,1,1.35.67-.85,1.91-1.49,3.46-1.49,2.35,0,4.48,1.52,4.48,4.15v6.04h-2.2v-5.67c0-1.43-1.24-2.45-2.57-2.45-1.12,0-2.86.85-2.86,1.74v6.39s-2.26,0-2.26,0Z" fill="#49154e" stroke-width="0"/><path d="m170.88,4.89c0,.77-.56,1.33-1.33,1.33s-1.33-.56-1.33-1.33.54-1.35,1.33-1.35,1.33.58,1.33,1.35Zm-2.49,12.41V7.33h2.32v9.98h-2.32Z" fill="#49154e" stroke-width="0"/><path d="m174.27,17.31V7.46l.95-.21c.41.31.77.85,1,1.35.67-.85,1.91-1.49,3.46-1.49,2.35,0,4.48,1.52,4.48,4.15v6.04h-2.2v-5.67c0-1.43-1.24-2.45-2.57-2.45-1.12,0-2.86.85-2.86,1.74v6.39s-2.26,0-2.26,0Z" fill="#49154e" stroke-width="0"/><path d="m191.29,7.11c1.62,0,2.43.46,3.09,1.14.17-.39.42-.75.75-1.02l1.1.27c-.17.48-.21.93-.21,1.41v7.32c0,3.15-1.89,4.98-4.92,4.98-2.22,0-3.53-.85-4.17-1.72l1.33-1.64c.48.69,1.27,1.29,2.86,1.29s3.01-1.04,3.01-2.99c-.6.83-1.64,1.16-2.9,1.16-2.28,0-4.23-1.72-4.23-5.31,0-3.09,1.99-4.88,4.29-4.88h0Zm2.55,7.06v-3.73c-.35-1.02-1.37-1.27-2.14-1.27-1.47,0-2.66,1.27-2.66,2.88,0,2.26,1.12,3.3,2.72,3.3.66,0,1.91-.48,2.08-1.18Z" fill="#49154e" stroke-width="0"/><path d="m10.25,5.59H2.57v3.63h6.04l-.25,2.24H2.57v5.85H0V3.22h10.52s-.27,2.37-.27,2.37Z" fill="#49154e" stroke-width="0"/><path d="m15.52,4.89c0,.77-.56,1.33-1.33,1.33s-1.33-.56-1.33-1.33.54-1.35,1.33-1.35,1.33.58,1.33,1.35Zm-2.49,12.41V7.33h2.32v9.98h-2.32Z" fill="#49154e" stroke-width="0"/><path d="m23.22,14.53l2.8-7.2h2.32l-3.9,9.98h-2.51l-4.07-9.98h2.55l2.82,7.2h0Z" fill="#49154e" stroke-width="0"/><path d="m39.35,11.55c0,1.22-.83,1.45-1.78,1.45h-5.58c.17,1.49,1.37,2.45,2.8,2.45,1.18,0,2.05-.5,2.53-1.25l1.68.95c-.95,1.6-2.22,2.34-4.32,2.34-2.68,0-4.88-2.26-4.88-5.29s2.01-5.08,4.88-5.08c2.61,0,4.67,1.76,4.67,4.44h0Zm-7.32-.23h5.29c-.19-1.33-1.25-2.22-2.59-2.22s-2.47.89-2.7,2.22Z" fill="#49154e" stroke-width="0"/><path d="m44.9,3.22v6.45l6.99-6.45h3.44l-6.04,5.17,6.23,8.92h-3.01l-4.94-7.32-2.66,2.34v4.98h-2.49V3.22h2.49,0Z" fill="#49154e" stroke-width="0"/><path d="m60.63,4.89c0,.77-.56,1.33-1.33,1.33s-1.33-.56-1.33-1.33.54-1.35,1.33-1.35,1.33.58,1.33,1.35Zm-2.49,12.41V7.33h2.32v9.98h-2.32Z" fill="#49154e" stroke-width="0"/><path d="m63.29,12.13c0-3.63,2.28-5.02,4.3-5.02,1.2,0,1.97.33,2.57.89V2.83h2.32v12.99c0,.15.13,1.06.25,1.33l-.87.29c-.48-.15-.91-.58-1.14-1-.85.73-1.62,1.06-2.8,1.06-2.57,0-4.63-2.22-4.63-5.37Zm6.97,2.05v-3.61c-.16-.98-1.47-1.47-2.12-1.47-1.45,0-2.64,1.12-2.64,3.13s.79,3.19,2.64,3.19c.44,0,1.97-.46,2.12-1.24Z" fill="#49154e" stroke-width="0"/><path d="m84.52,9.08l-1.76,1.24c-.27-.56-1.04-1.24-2.62-1.24-1,0-1.87.33-1.87.98s.85.87,1.89,1.06c2.68.5,4.65.85,4.65,3.2,0,2.53-2.57,3.17-4.54,3.17-2.28,0-4.05-.91-4.83-2.34l1.91-1.06c.39.62,1.27,1.43,2.82,1.43,1,0,2.53-.37,2.53-1.1,0-.6-.62-.83-1.39-1.02-2.8-.68-5.15-.87-5.15-3.4,0-2.03,1.49-2.86,4.11-2.86,2.3,0,3.88.95,4.25,1.93h0Z" fill="#49154e" stroke-width="0"/><path d="m160.52,23.37h-2.49v-3.42h2.51l-.05.47h-1.93v.8h1.51l-.05.44h-1.46v1.25h2.01l-.05.46h0Z" fill="#49154e" stroke-width="0"/><path d="m161.59,22.4c.18.34.59.56,1,.56.59,0,1.09-.2,1.09-.65,0-.79-2.36-.17-2.36-1.51,0-.74.83-.93,1.4-.93.71,0,1.24.19,1.46.67l-.5.29c-.14-.3-.51-.52-.92-.52-.34,0-.9.08-.9.51,0,.79,2.35.19,2.35,1.53,0,.79-.9,1.08-1.54,1.08-.95,0-1.41-.39-1.58-.74l.49-.28h0Z" fill="#49154e" stroke-width="0"/><path d="m164.7,19.96h2.82l-.05.47h-1.08v2.94h-.52v-2.94h-1.17v-.47Z" fill="#49154e" stroke-width="0"/><path d="m169.98,22.9c.78-.37,2.05-1.04,2.05-1.97,0-.39-.37-.69-.76-.69-.33,0-.76.16-.76.52,0,.12.04.23.12.32l-.33.25c-.14-.12-.23-.31-.23-.54,0-.64.52-.92,1.22-.92.76,0,1.2.43,1.2,1.07,0,1.01-1.01,1.62-1.71,1.93l.03.07h1.78l-.05.43h-2.46l-.08-.47h-.02Z" fill="#49154e" stroke-width="0"/><path d="m175.97,21.64c0,.93-.46,1.78-1.41,1.78s-1.4-.85-1.4-1.78.47-1.78,1.4-1.78,1.41.82,1.41,1.78Zm-2.25,0c0,.6.07,1.38.85,1.38s.85-.78.85-1.38-.07-1.38-.85-1.38-.85.79-.85,1.38Z" fill="#49154e" stroke-width="0"/><path d="m176.58,22.9c.78-.37,2.05-1.04,2.05-1.97,0-.39-.37-.69-.76-.69-.33,0-.76.16-.76.52,0,.12.04.23.12.32l-.33.25c-.14-.12-.23-.31-.23-.54,0-.64.52-.92,1.22-.92.76,0,1.2.43,1.2,1.07,0,1.01-1.01,1.62-1.71,1.93l.03.07h1.78l-.05.43h-2.46l-.08-.47h-.02Z" fill="#49154e" stroke-width="0"/><path d="m179.99,20.4v-.44h2.11l.08.22-.91,1.06h.16c.54,0,.99.37.99.96,0,.84-.71,1.24-1.43,1.24-.66,0-1.18-.29-1.3-.59l.42-.28c.07.26.57.47.87.47.49,0,.96-.31.96-.86,0-.39-.36-.57-.71-.57-.13,0-.27.04-.43.13l-.28-.28.97-1.05h-1.5Z" fill="#49154e" stroke-width="0"/></svg>